<svg width="322" height="281" viewBox="0 0 322 281" fill="none" xmlns="http://www.w3.org/2000/svg">
<path d="M79.0479 10.0531L158.871 9.9482L193.642 9.9463C208.703 9.9617 221.463 9.2075 236.128 13.3484C268.718 22.5509 288.52 51.1011 288.746 84.4265C288.884 105.167 281.635 125.088 266.938 139.967C254.239 152.782 235.77 161.377 217.662 161.885C212.873 157.743 206.174 153.367 201.047 149.273C201.278 135.944 196.858 129.296 188.98 119.533C193.015 119.716 197.315 119.566 201.199 119.709C212.334 120.116 223.368 118.804 231.74 110.756C254.688 88.6965 240.065 52.6783 207.906 52.9652C196.213 53.0696 183.686 52.9748 172.11 52.9625L91.8988 52.9333C91.3198 52.9466 89.8798 53.0101 89.4238 52.6713C84.5038 49.0153 79.6678 44.5302 74.9328 40.6114C75.3528 38.0332 75.5949 35.4295 75.6599 32.8183C75.7999 24.97 73.4148 15.9272 67.8658 10.1653C71.3678 9.9485 75.5449 9.9819 79.0479 10.0531Z" fill="black"/>
<path d="M64.6431 43.2382C70.3369 48.3085 75.8827 52.8531 81.5825 57.7841C96.4574 70.8636 111.474 83.7822 126.628 96.5361C134.391 103.168 143.052 110.082 150.548 116.939C159.079 114.672 168.163 115.899 175.786 120.348C186.81 126.732 194.255 140.997 191.363 153.646C199.395 160.054 208.897 166.798 217.282 172.893L250.233 197.034C253.03 199.089 277.081 217.044 278.003 217.355C264.513 222.427 255.973 235.782 257.028 250.16C254.964 249.286 243.027 239.895 240.487 238.045L190.181 200.807C184.284 196.413 178.493 192.086 172.445 187.876C169.35 185.72 166.417 183.023 163.168 181.1C154.229 181.05 148.285 180.643 140.67 175.52C129.68 168.128 126.409 158.546 126.211 146.041C124.449 144.566 122.784 142.85 120.993 141.332L83.2153 109.283C66.4375 95.1333 48.607 80.5991 32.3472 65.998C33.7572 65.5039 36.1058 65.2225 37.6206 65.122C48.5036 64.3996 62.013 54.0845 64.6431 43.2382ZM172.102 146.466C171.072 139.206 164.348 134.157 157.09 135.194C149.843 136.23 144.805 142.944 145.833 150.194C146.861 157.444 153.569 162.491 160.819 161.469C168.078 160.446 173.133 153.726 172.102 146.466Z" fill="black"/>
<path d="M46.2955 207.349C45.8315 201.24 45.7455 181.318 47.2995 176.071C48.6605 171.364 51.8245 167.385 56.1045 165L56.1015 165.663L120.079 211.217L146.331 229.572C152.822 234.155 160.722 239.353 166.154 245.063C172.16 251.331 176.208 259.216 177.805 267.75C178.041 269.153 178.234 270.564 178.388 271.977L133.214 272.014C128.326 265.075 117.113 257.633 109.993 252.55C105.042 248.95 100.068 245.38 95.0725 241.842L46.2955 207.349Z" fill="black"/>
<path d="M5.53894 272.216L5.46484 214.161C5.45629 185.286 2.09708 157.258 24.9835 135.708C41.0604 120.569 58.5147 118.355 79.2 119.539C80.8445 120.756 86.9378 126.525 88.8169 128.248C96.5233 135.311 105.88 142.919 113.191 150.189C113.05 153.891 114.402 158.857 115.935 162.167C104.366 162.612 92.7176 162.091 81.1504 162.293C73.2378 162.431 65.6492 161.459 58.3855 165.244C54.3195 167.629 51.3137 171.608 50.0208 176.315C48.5435 181.562 48.6262 201.484 49.067 207.593L49.0784 244.967C49.0812 253.963 49.1895 263.241 48.9359 272.219C34.4702 272.107 20.0046 272.107 5.53894 272.216Z" fill="black"/>
<path d="M18.6782 3.21152C27.2911 -0.763691 37.1509 -1.06066 45.9878 2.38828C61.2787 8.27878 70.7499 27.8242 64.6431 43.2379C62.0131 54.0842 48.5036 64.3993 37.6206 65.1217C36.1057 65.2222 33.7571 65.5045 32.3472 65.9986C29.5622 64.7079 25.1277 64.4134 21.9107 63.2848C14.0769 60.4873 6.54321 53.6893 2.97218 46.2037C-4.54412 30.4496 2.74123 10.4538 18.6782 3.21152ZM32.8843 19.2223C28.0653 19.3366 23.6788 22.0341 21.4038 26.2848C19.1279 30.5351 19.3133 35.6809 21.8901 39.7564C24.4661 43.8318 29.0341 46.2067 33.8491 45.9732C41.1668 45.6181 46.8385 39.4444 46.5747 32.1217C46.3107 24.7984 40.2081 19.049 32.8843 19.2223Z" fill="black"/>
<path d="M278.003 217.355C291.104 212.43 305.887 216.447 314.695 227.326C323.501 238.206 324.356 253.504 316.815 265.297C309.274 277.089 295.032 282.729 281.464 279.294C267.896 275.858 258.051 264.122 257.028 250.16C255.973 235.782 264.513 222.427 278.003 217.355ZM302.646 246.568C301.926 239.259 295.403 233.928 288.098 234.682C280.844 235.431 275.558 241.902 276.272 249.161C276.984 256.42 283.428 261.739 290.691 261.061C298.003 260.379 303.363 253.877 302.646 246.568Z" fill="black"/>
</svg>
