<svg width="322" height="281" viewBox="0 0 322 281" fill="none" xmlns="http://www.w3.org/2000/svg">
<path d="M79.048 10.0533L158.871 9.94835L193.642 9.94645C208.703 9.96185 221.463 9.20765 236.128 13.3485C268.718 22.551 288.52 51.1012 288.746 84.4267C288.884 105.168 281.635 125.089 266.938 139.968C254.239 152.783 235.77 161.378 217.662 161.886C212.873 157.744 206.174 153.368 201.047 149.274C201.278 135.945 196.858 129.296 188.98 119.533C193.015 119.716 197.315 119.566 201.199 119.709C212.334 120.116 223.368 118.804 231.74 110.756C254.688 88.6967 240.065 52.6785 207.906 52.9654C196.213 53.0698 183.686 52.975 172.11 52.9627L91.899 52.9335C91.32 52.9468 89.88 53.0103 89.424 52.6715C84.504 49.0155 79.668 44.5303 74.933 40.6115C75.353 38.0333 75.595 35.4297 75.66 32.8185C75.8 24.9702 73.415 15.9274 67.866 10.1655C71.368 9.94865 75.545 9.98205 79.048 10.0533Z" fill="url(#paint0_linear_2_21)"/>
<path d="M64.6433 43.2384C70.3371 48.3087 75.883 52.8533 81.5828 57.7843C96.4576 70.8637 111.474 83.7823 126.629 96.5362C134.392 103.168 143.053 110.083 150.549 116.94C159.08 114.673 168.163 115.899 175.786 120.348C186.81 126.732 194.255 140.998 191.363 153.647C199.395 160.055 208.897 166.798 217.282 172.893L250.233 197.034C253.03 199.089 277.081 217.045 278.004 217.356C264.513 222.428 255.973 235.783 257.028 250.16C254.964 249.286 243.027 239.895 240.487 238.045L190.181 200.807C184.284 196.413 178.493 192.086 172.445 187.876C169.35 185.72 166.418 183.023 163.169 181.1C154.229 181.05 148.286 180.644 140.671 175.521C129.68 168.128 126.41 158.546 126.212 146.041C124.45 144.566 122.784 142.85 120.993 141.332L83.2156 109.283C66.4377 95.1334 48.6073 80.5992 32.3474 65.9981C33.7574 65.5041 36.106 65.2227 37.6208 65.1222C48.5038 64.3998 62.0132 54.0846 64.6433 43.2384ZM172.102 146.466C171.072 139.206 164.349 134.157 157.091 135.194C149.843 136.231 144.805 142.944 145.834 150.194C146.862 157.444 153.569 162.491 160.819 161.469C168.078 160.446 173.133 153.726 172.102 146.466Z" fill="url(#paint1_linear_2_21)"/>
<path d="M49.067 207.593C48.603 201.484 48.517 181.562 50.071 176.315C51.432 171.608 54.596 167.629 58.876 165.244L58.873 165.907L122.851 211.461L149.102 229.816C155.593 234.399 163.493 239.597 168.925 245.307C174.931 251.575 178.979 259.46 180.576 267.994C180.812 269.397 181.006 270.808 181.16 272.221L135.986 272.258C131.098 265.319 119.885 257.877 112.765 252.794C107.814 249.194 102.84 245.624 97.844 242.086L49.067 207.593Z" fill="url(#paint2_linear_2_21)"/>
<path d="M5.5392 272.216L5.4651 214.161C5.45655 185.286 2.09734 157.258 24.9838 135.708C41.0606 120.569 58.515 118.355 79.2003 119.539C80.8447 120.756 86.938 126.525 88.8171 128.248C96.5235 135.311 105.88 142.919 113.191 150.189C113.051 153.891 114.403 158.857 115.935 162.167C104.366 162.612 92.7178 162.091 81.1506 162.293C73.2381 162.431 65.6495 161.459 58.3858 165.244C54.3198 167.629 51.314 171.608 50.021 176.315C48.5438 181.562 48.6264 201.484 49.0672 207.593L49.0786 244.967C49.0815 253.963 49.1898 263.241 48.9361 272.219C34.4705 272.107 20.0048 272.107 5.5392 272.216Z" fill="url(#paint3_linear_2_21)"/>
<path d="M18.6782 3.21207C27.291 -0.763249 37.1509 -1.061 45.9877 2.38785C61.2787 8.27835 70.75 27.8247 64.643 43.2384C62.0129 54.0845 48.5044 64.3996 37.6215 65.1222C36.1066 65.2227 33.7571 65.504 32.3471 65.9982C29.5621 64.7075 25.1276 64.4139 21.9106 63.2853C14.0768 60.4878 6.54306 53.689 2.97212 46.2033C-4.54406 30.4492 2.74123 10.4543 18.6782 3.21207ZM32.8842 19.2218C28.0653 19.3361 23.6788 22.0338 21.4038 26.2843C19.1278 30.5347 19.3131 35.6814 21.8901 39.757C24.4661 43.8324 29.0341 46.2073 33.8491 45.9738C41.1671 45.6188 46.8387 39.4442 46.5747 32.1212C46.3106 24.798 40.2081 19.0484 32.8842 19.2218Z" fill="#0E72F5"/>
<path d="M278.004 217.356C291.105 212.431 305.887 216.447 314.695 227.326C323.501 238.206 324.356 253.504 316.815 265.297C309.274 277.089 295.033 282.729 281.465 279.294C267.897 275.858 258.051 264.122 257.028 250.16C255.973 235.782 264.513 222.428 278.004 217.356ZM302.646 246.568C301.926 239.259 295.403 233.928 288.098 234.682C280.845 235.431 275.559 241.902 276.272 249.161C276.984 256.42 283.428 261.74 290.691 261.062C298.003 260.379 303.363 253.877 302.646 246.568Z" fill="#06439A"/>
<defs>
<linearGradient id="paint0_linear_2_21" x1="74.571" y1="10.0596" x2="288.571" y2="162.06" gradientUnits="userSpaceOnUse">
<stop stop-color="#0B63D8"/>
<stop offset="0.42" stop-color="#064EAE"/>
<stop offset="1" stop-color="#06357E"/>
</linearGradient>
<linearGradient id="paint1_linear_2_21" x1="29.571" y1="41.0597" x2="289.571" y2="251.06" gradientUnits="userSpaceOnUse">
<stop stop-color="#147AF9"/>
<stop offset="0.48" stop-color="#1F99F7"/>
<stop offset="1" stop-color="#0B55BC"/>
</linearGradient>
<linearGradient id="paint2_linear_2_21" x1="49.571" y1="166.06" x2="181.571" y2="272.06" gradientUnits="userSpaceOnUse">
<stop stop-color="#A9E8FA"/>
<stop offset="0.55" stop-color="#8CDDF5"/>
<stop offset="1" stop-color="#75CFED"/>
</linearGradient>
<linearGradient id="paint3_linear_2_21" x1="5.84604" y1="119.06" x2="124.32" y2="267.203" gradientUnits="userSpaceOnUse">
<stop stop-color="#1165D5"/>
<stop offset="0.55" stop-color="#0758C3"/>
<stop offset="1" stop-color="#0648A2"/>
</linearGradient>
</defs>
</svg>
